<?xml version="1.0" encoding="utf-8"?>
<!-- Generator: Adobe Illustrator 23.0.6, SVG Export Plug-In . SVG Version: 6.00 Build 0)  -->
<svg version="1.1" id="레이어_1" xmlns="http://www.w3.org/2000/svg" xmlns:xlink="http://www.w3.org/1999/xlink" x="0px"
	 y="0px" viewBox="0 0 1914.6 542.8" style="enable-background:new 0 0 1914.6 542.8;" xml:space="preserve">
<style type="text/css">
	.st0{fill:#FFFFFF;}
</style>
<g>
	<path class="st0" d="M938.2,24.1c5.7,2.6,10.1,6.3,13.2,11c3.1,4.8,4.6,10.4,4.6,16.9c0,6.4-1.5,12.1-4.6,16.9s-7.5,8.5-13.2,11
		c-5.7,2.6-12.5,3.8-20.3,3.8h-17.7v24.2h-20.3V20.1h38C925.7,20.2,932.5,21.5,938.2,24.1z M930.7,63.3c3.2-2.6,4.8-6.4,4.8-11.2
		c0-4.9-1.6-8.7-4.8-11.4c-3.2-2.6-7.8-4-13.9-4h-16.6v30.5h16.6C922.9,67.2,927.5,65.9,930.7,63.3z"/>
	<path class="st0" d="M1026.4,107.9l-16.9-24.5h-1h-17.7v24.5h-20.3V20.2h38c7.8,0,14.5,1.3,20.3,3.9c5.7,2.6,10.1,6.3,13.2,11
		c3.1,4.8,4.6,10.4,4.6,16.9s-1.6,12.2-4.7,16.9c-3.1,4.7-7.6,8.3-13.4,10.9l19.7,28.2L1026.4,107.9L1026.4,107.9z M1021.2,40.7
		c-3.2-2.6-7.8-4-13.9-4h-16.6v30.6h16.6c6.1,0,10.7-1.3,13.9-4c3.2-2.7,4.8-6.4,4.8-11.3C1026,47.1,1024.4,43.3,1021.2,40.7z"/>
	<path class="st0" d="M1080.4,103.5c-7.3-3.9-13.1-9.3-17.2-16.3c-4.1-6.9-6.2-14.7-6.2-23.3s2.1-16.4,6.2-23.3s9.9-12.3,17.2-16.3
		c7.3-3.9,15.5-5.9,24.7-5.9c9.1,0,17.3,2,24.6,5.9c7.3,3.9,13,9.3,17.2,16.3c4.2,6.9,6.3,14.7,6.3,23.3s-2.1,16.4-6.3,23.3
		c-4.2,6.9-9.9,12.3-17.2,16.3c-7.3,3.9-15.5,5.9-24.6,5.9S1087.7,107.5,1080.4,103.5z M1119.1,88.5c4.2-2.4,7.5-5.7,9.9-10
		s3.6-9.1,3.6-14.6c0-5.4-1.2-10.3-3.6-14.6s-5.7-7.6-9.9-10c-4.2-2.4-8.9-3.6-14.1-3.6s-9.9,1.2-14.1,3.6c-4.2,2.4-7.5,5.7-9.9,10
		s-3.6,9.1-3.6,14.6c0,5.4,1.2,10.3,3.6,14.6c2.4,4.3,5.7,7.6,9.9,10c4.2,2.4,8.9,3.6,14.1,3.6C1110.3,92.1,1115,90.9,1119.1,88.5z"
		/>
	<path class="st0" d="M1227.7,62.7h18.6v35.6c-4.8,3.6-10.3,6.4-16.6,8.3c-6.3,1.9-12.6,2.9-18.9,2.9c-9.1,0-17.3-1.9-24.6-5.8
		c-7.3-3.9-13-9.3-17.1-16.2s-6.2-14.7-6.2-23.4s2.1-16.5,6.2-23.4s9.9-12.3,17.3-16.2s15.6-5.8,24.8-5.8c7.7,0,14.7,1.3,21,3.9
		s11.5,6.4,15.8,11.3l-13.1,12c-6.3-6.6-13.8-9.9-22.7-9.9c-5.6,0-10.6,1.2-14.9,3.5c-4.4,2.3-7.7,5.6-10.2,9.9
		c-2.4,4.3-3.6,9.2-3.6,14.7c0,5.4,1.2,10.3,3.6,14.6c2.4,4.3,5.8,7.6,10.1,10c4.3,2.4,9.2,3.6,14.7,3.6c5.9,0,11.1-1.3,15.8-3.8
		L1227.7,62.7L1227.7,62.7z"/>
	<path class="st0" d="M1321,107.9l-16.9-24.5h-1h-17.7v24.5h-20.3V20.2h38c7.8,0,14.5,1.3,20.3,3.9c5.7,2.6,10.1,6.3,13.2,11
		c3.1,4.8,4.6,10.4,4.6,16.9s-1.6,12.2-4.7,16.9c-3.1,4.7-7.6,8.3-13.4,10.9l19.7,28.2L1321,107.9L1321,107.9z M1315.8,40.7
		c-3.2-2.6-7.8-4-13.9-4h-16.6v30.6h16.6c6.1,0,10.7-1.3,13.9-4c3.2-2.7,4.8-6.4,4.8-11.3C1320.6,47.1,1319,43.3,1315.8,40.7z"/>
	<path class="st0" d="M1415,89.1h-40.8l-7.8,18.8h-20.8l39.2-87.7h20.1l39.3,87.7h-21.3L1415,89.1z M1408.6,73.8l-13.9-33.6
		l-13.9,33.6H1408.6L1408.6,73.8z"/>
	<path class="st0" d="M1533,107.9l-0.1-52.6L1507,98.7h-9.2l-25.7-42.3v51.5H1453V20.2h16.8l32.9,54.5l32.4-54.5h16.7l0.3,87.7
		L1533,107.9L1533,107.9z"/>
	<path class="st0" d="M1652.8,107.9l-0.1-52.6l-25.9,43.4h-9.2L1592,56.4v51.5h-19.1V20.2h16.8l32.9,54.5l32.4-54.5h16.7l0.3,87.7
		L1652.8,107.9L1652.8,107.9z"/>
	<path class="st0" d="M1692.7,20.2h20.3v87.7h-20.3V20.2z"/>
	<path class="st0" d="M1814.2,20.2v87.7h-16.7l-43.8-53.2v53.2h-20.1V20.2h16.8l43.7,53.2V20.2H1814.2z"/>
	<path class="st0" d="M1894.4,62.7h18.6v35.6c-4.8,3.6-10.3,6.4-16.6,8.3c-6.3,1.9-12.6,2.9-19,2.9c-9.1,0-17.3-1.9-24.6-5.8
		c-7.3-3.9-13-9.3-17.1-16.2s-6.2-14.7-6.2-23.4s2.1-16.5,6.2-23.4s9.9-12.3,17.3-16.2s15.6-5.8,24.8-5.8c7.7,0,14.7,1.3,21,3.9
		s11.5,6.4,15.8,11.3l-13.1,12c-6.3-6.6-13.8-9.9-22.7-9.9c-5.6,0-10.6,1.2-14.9,3.5c-4.4,2.3-7.7,5.6-10.2,9.9
		c-2.4,4.3-3.6,9.2-3.6,14.7c0,5.4,1.2,10.3,3.6,14.6c2.4,4.3,5.8,7.6,10.1,10s9.2,3.6,14.7,3.6c5.9,0,11.1-1.3,15.8-3.8
		L1894.4,62.7L1894.4,62.7z"/>
	<path class="st0" d="M939.3,201.2h18.6v35.6c-4.8,3.6-10.3,6.4-16.6,8.3c-6.3,1.9-12.6,2.9-18.9,2.9c-9.1,0-17.3-1.9-24.6-5.8
		c-7.3-3.9-13-9.3-17.1-16.2s-6.2-14.7-6.2-23.4s2.1-16.5,6.2-23.4c4.1-6.9,9.9-12.3,17.3-16.2c7.4-3.9,15.6-5.8,24.8-5.8
		c7.7,0,14.7,1.3,21,3.9c6.3,2.6,11.5,6.4,15.8,11.3l-13.1,12c-6.3-6.6-13.8-9.9-22.7-9.9c-5.6,0-10.6,1.2-14.9,3.5
		c-4.4,2.3-7.7,5.6-10.2,9.9c-2.4,4.3-3.6,9.2-3.6,14.7c0,5.4,1.2,10.3,3.6,14.6c2.4,4.3,5.8,7.6,10.1,10s9.2,3.6,14.7,3.6
		c5.9,0,11.1-1.3,15.8-3.8L939.3,201.2L939.3,201.2z"/>
	<path class="st0" d="M1034.4,227.6h-40.8l-7.8,18.8H965l39.2-87.7h20.1l39.3,87.7h-21.3L1034.4,227.6z M1028,212.2l-13.9-33.6
		l-13.9,33.6L1028,212.2L1028,212.2z"/>
	<path class="st0" d="M1072.6,158.7h20.3v71.2h44v16.6h-64.3V158.7L1072.6,158.7z"/>
	<path class="st0" d="M1148.3,158.7h20.3v71.2h44v16.6h-64.2v-87.8H1148.3z"/>
	<path class="st0" d="M1292,230.2v16.3h-67.9v-87.7h66.3v16.3h-46.2v19.1h40.8V210h-40.8v20.3L1292,230.2L1292,230.2z"/>
	<path class="st0" d="M1364.1,246.5l-16.9-24.5h-1h-17.7v24.5h-20.4v-87.7h38c7.8,0,14.5,1.3,20.3,3.9c5.7,2.6,10.1,6.3,13.2,11
		c3.1,4.8,4.6,10.4,4.6,16.9s-1.6,12.2-4.7,16.9s-7.6,8.3-13.4,10.9l19.7,28.2L1364.1,246.5L1364.1,246.5z M1358.9,179.2
		c-3.2-2.6-7.8-4-13.9-4h-16.6v30.6h16.6c6.1,0,10.7-1.3,13.9-4c3.2-2.7,4.8-6.4,4.8-11.3C1363.7,185.6,1362.1,181.9,1358.9,179.2z"
		/>
	<path class="st0" d="M1441.1,215.3v31.1h-20.3V215l-34-56.4h21.6l23.5,39l23.5-39h20L1441.1,215.3z"/>
	<path class="st0" d="M897.6,380.6c-7.2-3.9-12.9-9.3-17.1-16.2c-4.1-6.9-6.2-14.7-6.2-23.4s2.1-16.5,6.2-23.4
		c4.1-6.9,9.8-12.3,17.1-16.2c7.2-3.9,15.4-5.8,24.4-5.8c7.6,0,14.5,1.3,20.6,4s11.3,6.5,15.5,11.5l-13.1,12
		c-5.9-6.9-13.3-10.3-22.1-10.3c-5.4,0-10.3,1.2-14.6,3.6s-7.6,5.7-10,10s-3.6,9.1-3.6,14.6c0,5.4,1.2,10.3,3.6,14.6
		c2.4,4.3,5.7,7.6,10,10s9.1,3.6,14.6,3.6c8.8,0,16.1-3.5,22.1-10.4l13.1,12c-4.2,5.1-9.4,9-15.6,11.7s-13.1,4-20.7,4
		C913,386.4,904.9,384.5,897.6,380.6z"/>
	<path class="st0" d="M987.8,380.5c-7.3-3.9-13.1-9.3-17.2-16.3c-4.1-6.9-6.2-14.7-6.2-23.3c0-8.6,2.1-16.4,6.2-23.3
		c4.1-6.9,9.9-12.3,17.2-16.3c7.3-3.9,15.5-5.9,24.7-5.9c9.1,0,17.3,2,24.6,5.9c7.3,3.9,13,9.3,17.2,16.3c4.2,6.9,6.3,14.7,6.3,23.3
		c0,8.6-2.1,16.4-6.3,23.3c-4.2,6.9-9.9,12.3-17.2,16.3c-7.3,3.9-15.5,5.9-24.6,5.9C1003.3,386.4,995.1,384.4,987.8,380.5z
		 M1026.5,365.6c4.2-2.4,7.5-5.7,9.9-10s3.6-9.1,3.6-14.6c0-5.4-1.2-10.3-3.6-14.6c-2.4-4.3-5.7-7.6-9.9-10
		c-4.2-2.4-8.9-3.6-14.1-3.6s-9.9,1.2-14.1,3.6s-7.5,5.7-9.9,10s-3.6,9.1-3.6,14.6c0,5.4,1.2,10.3,3.6,14.6c2.4,4.3,5.7,7.6,9.9,10
		s8.9,3.6,14.1,3.6S1022.3,368,1026.5,365.6z"/>
	<path class="st0" d="M1156.2,297.1v87.7h-16.7l-43.8-53.2v53.2h-20.1v-87.7h16.8l43.7,53.2v-53.2L1156.2,297.1L1156.2,297.1z"/>
	<path class="st0" d="M1197.3,313.5v23.2h40.7V353h-40.7v32H1177v-87.7h66.3v16.3L1197.3,313.5L1197.3,313.5z"/>
	<path class="st0" d="M1325.1,368.7V385h-67.9v-87.7h66.3v16.3h-46.2v19.1h40.8v15.8h-40.8v20.3L1325.1,368.7L1325.1,368.7z"/>
	<path class="st0" d="M1397.2,384.9l-16.9-24.5h-1h-17.7v24.5h-20.3v-87.7h38c7.8,0,14.5,1.3,20.3,3.9c5.7,2.6,10.1,6.3,13.2,11
		c3.1,4.8,4.6,10.4,4.6,16.9s-1.6,12.2-4.7,16.9c-3.1,4.7-7.6,8.3-13.4,10.9L1419,385h-21.8V384.9z M1392,317.7
		c-3.2-2.6-7.8-4-13.9-4h-16.6v30.6h16.6c6.1,0,10.7-1.3,13.9-4c3.2-2.7,4.8-6.4,4.8-11.3C1396.8,324.1,1395.2,320.3,1392,317.7z"/>
	<path class="st0" d="M1501.4,368.7V385h-67.9v-87.7h66.3v16.3h-46.2v19.1h40.8v15.8h-40.8v20.3L1501.4,368.7L1501.4,368.7z"/>
	<path class="st0" d="M1598,297.1v87.7h-16.7l-43.8-53.2v53.2h-20.1v-87.7h16.8l43.7,53.2v-53.2L1598,297.1L1598,297.1z"/>
	<path class="st0" d="M1636.5,380.6c-7.2-3.9-12.9-9.3-17.1-16.2c-4.1-6.9-6.2-14.7-6.2-23.4s2.1-16.5,6.2-23.4s9.8-12.3,17.1-16.2
		c7.2-3.9,15.4-5.8,24.4-5.8c7.6,0,14.5,1.3,20.6,4c6.2,2.7,11.3,6.5,15.5,11.5l-13.1,12c-5.9-6.9-13.3-10.3-22.1-10.3
		c-5.4,0-10.3,1.2-14.6,3.6s-7.6,5.7-10,10s-3.6,9.1-3.6,14.6c0,5.4,1.2,10.3,3.6,14.6c2.4,4.3,5.7,7.6,10,10s9.1,3.6,14.6,3.6
		c8.8,0,16.1-3.5,22.1-10.4l13.1,12c-4.2,5.1-9.4,9-15.6,11.7s-13.1,4-20.7,4C1651.8,386.4,1643.8,384.5,1636.5,380.6z"/>
	<path class="st0" d="M1778.7,368.7V385h-67.9v-87.7h66.3v16.3h-46.2v19.1h40.8v15.8h-40.8v20.3L1778.7,368.7L1778.7,368.7z"/>
	<path class="st0" d="M940,506.9v16.6h-66.3v-13.2l33.9-32c3.6-3.4,6-6.4,7.3-8.8c1.3-2.5,1.9-4.9,1.9-7.3c0-3.5-1.2-6.2-3.6-8.1
		c-2.4-1.9-5.9-2.8-10.5-2.8c-3.8,0-7.3,0.7-10.4,2.2c-3.1,1.5-5.7,3.7-7.8,6.6l-14.8-9.5c3.4-5.1,8.2-9.1,14.2-12
		s12.9-4.3,20.7-4.3c6.5,0,12.2,1.1,17.1,3.2c4.9,2.1,8.7,5.1,11.4,9s4.1,8.5,4.1,13.7c0,4.8-1,9.2-3,13.4c-2,4.2-5.9,9-11.7,14.3
		L902.2,507L940,506.9L940,506.9z"/>
	<path class="st0" d="M966.3,519.5c-5.7-3.6-10.1-8.8-13.4-15.6c-3.2-6.8-4.8-15-4.8-24.4c0-9.5,1.6-17.6,4.8-24.4s7.7-12,13.4-15.6
		s12.2-5.4,19.5-5.4s13.8,1.8,19.5,5.4s10.1,8.8,13.4,15.6c3.2,6.8,4.8,15,4.8,24.4c0,9.5-1.6,17.6-4.8,24.4s-7.7,12-13.4,15.6
		s-12.2,5.4-19.5,5.4C978.4,524.9,971.9,523.1,966.3,519.5z M998.3,500.8c3.1-4.6,4.6-11.7,4.6-21.3s-1.5-16.7-4.6-21.3
		s-7.3-6.9-12.6-6.9s-9.4,2.3-12.5,6.9s-4.6,11.7-4.6,21.3s1.5,16.7,4.6,21.3s7.2,6.9,12.5,6.9C991.1,507.7,995.3,505.4,998.3,500.8
		z"/>
	<path class="st0" d="M1098.1,506.9v16.6h-66.3v-13.2l33.9-32c3.6-3.4,6-6.4,7.3-8.8c1.3-2.5,1.9-4.9,1.9-7.3c0-3.5-1.2-6.2-3.6-8.1
		s-5.9-2.8-10.5-2.8c-3.8,0-7.3,0.7-10.4,2.2s-5.7,3.7-7.8,6.6l-14.8-9.5c3.4-5.1,8.2-9.1,14.2-12s12.9-4.3,20.7-4.3
		c6.5,0,12.2,1.1,17.1,3.2s8.7,5.1,11.4,9c2.7,3.9,4.1,8.5,4.1,13.7c0,4.8-1,9.2-3,13.4c-2,4.2-5.9,9-11.7,14.3l-20.2,19.1
		L1098.1,506.9L1098.1,506.9z"/>
	<path class="st0" d="M1124.4,519.5c-5.7-3.6-10.1-8.8-13.4-15.6c-3.2-6.8-4.8-15-4.8-24.4c0-9.5,1.6-17.6,4.8-24.4
		c3.2-6.8,7.7-12,13.4-15.6c5.7-3.6,12.2-5.4,19.5-5.4s13.8,1.8,19.5,5.4s10.1,8.8,13.4,15.6c3.2,6.8,4.8,15,4.8,24.4
		c0,9.5-1.6,17.6-4.8,24.4c-3.2,6.8-7.7,12-13.4,15.6c-5.7,3.6-12.2,5.4-19.5,5.4C1136.5,524.9,1130.1,523.1,1124.4,519.5z
		 M1156.4,500.8c3.1-4.6,4.6-11.7,4.6-21.3s-1.5-16.7-4.6-21.3c-3.1-4.6-7.3-6.9-12.6-6.9s-9.4,2.3-12.5,6.9s-4.6,11.7-4.6,21.3
		s1.5,16.7,4.6,21.3s7.2,6.9,12.5,6.9C1149.1,507.7,1153.3,505.4,1156.4,500.8z"/>
</g>
<g>
	<path class="st0" d="M231.9,188.5L209.7,177c-5.8-3-10.6-0.5-10.6,5.5l-0.3,85.7c0,6,4.7,13.5,10.5,16.4l22.2,11.5
		c4.8,2.5,8.9,1.2,10.2-2.7c-1.7,0.4-3.9,0.1-6.2-1.1l-13.5-7c3.8-9.3,10-16.8,14.3-20.5c1.4-1.2,3.4-2.8,5.9-4.9l0.2-55
		C242.4,198.9,237.7,191.5,231.9,188.5z"/>
	<path class="st0" d="M624,0H114.9C51.4,0,0,51.4,0,114.9v313c0,63.5,51.4,114.9,114.9,114.9H624c63.5,0,114.9-51.5,114.9-114.9
		v-313C739,51.4,687.5,0,624,0z M328.4,189.8c19-17.2,41.1-18.6,58.3-11.3c15.1,6.3,89.6,41,107.8,49.8l-42.7,34.5
		c-0.6-3.8-2.5-8.1-6.9-11.3c-10.8-8.1-45.2-23.4-51.5-26.2c-6.4-2.7-17.2-1.8-25.3,4.6c-4.6,3.6-28,21.8-48.5,38.6
		c0.1-18.5,0.1-33.3,0.1-33.3s0.8-16.8-5.5-33.1C320,197.1,325,192.9,328.4,189.8z M337.1,355.2l-21.8,16.9c0,0-25.3-11.3-66.5-32.1
		c-3.6-1.8-6.7-3.7-9.5-5.6c-10.4-5.6-19.8-10.7-24-12.8c-10.8-5.3-17.1-25.2-17.1-25.2s-0.1,39.3-0.2,59.9s6.1,31.2,6.1,31.2
		l-69.3-39.3l0.1-245.1c0,0,30,16,61.2,32.7l2.8,19.4c0,0,1.4-12.8,12.3-11.5c22.8,12.2,43.8,23.3,50.8,27
		c18,9.3,31.5,21.3,39.5,38.6c8.1,17.3,7.1,36.9,7.1,36.9s-0.2,45-0.3,75.8c0,8.7-1.4,15.2-3.6,20c4.9-1.9,9.6-6,12.3-13.9
		c0.4,0.2,0.7,0.3,1.1,0.5c13.5-10.9,33.6-27.4,43.3-35.9c3.9-3.5-2.8-19-2.8-19l51,23.2l-49.4,39.9L337.1,355.2z M594.3,330.1
		c-0.6-3.8-2.5-8.1-6.9-11.3c-10.8-8.1-45.2-23.4-51.5-26.2c-6.4-2.7-17.2-1.8-25.3,4.6c-8.2,6.4-76.9,60-80.9,67.3
		c-4.6,8.1-2.2,14,5,17.6s38.8,25.9,68,21.9l-23,18.6l-22.1,17.1c0,0-25.3-11.3-66.5-32.1c-51-25.8-24.4-65.1-12.6-75.1
		s73.3-57.9,92.2-75.1c19-17.2,41.1-18.6,58.3-11.3c15.1,6.4,89.7,41,108,49.6L594.3,330.1z"/>
</g>
</svg>
